<svg xmlns="http://www.w3.org/2000/svg" width="720" height="360" viewBox="0 0 720 360" role="img" aria-labelledby="title desc">
  <title id="title">Training loss curve</title>
  <desc id="desc">Train and validation loss over an 80 step demo run.</desc>
  <rect width="100%" height="100%" fill="#ffffff"/>
  <text x="64" y="20" font-family="Arial, sans-serif" font-size="16" font-weight="700" fill="#111827">Tiny Transformer training loss</text>
  <line x1="64" y1="28.0" x2="696" y2="28.0" stroke="#e5e7eb"/><text x="54" y="32.0" text-anchor="end" font-size="12" fill="#4b5563">4.01</text><line x1="64" y1="98.0" x2="696" y2="98.0" stroke="#e5e7eb"/><text x="54" y="102.0" text-anchor="end" font-size="12" fill="#4b5563">3.59</text><line x1="64" y1="168.0" x2="696" y2="168.0" stroke="#e5e7eb"/><text x="54" y="172.0" text-anchor="end" font-size="12" fill="#4b5563">3.17</text><line x1="64" y1="238.0" x2="696" y2="238.0" stroke="#e5e7eb"/><text x="54" y="242.0" text-anchor="end" font-size="12" fill="#4b5563">2.75</text><line x1="64" y1="308.0" x2="696" y2="308.0" stroke="#e5e7eb"/><text x="54" y="312.0" text-anchor="end" font-size="12" fill="#4b5563">2.32</text><line x1="64.0" y1="28" x2="64.0" y2="308" stroke="#f3f4f6"/><line x1="144.0" y1="28" x2="144.0" y2="308" stroke="#f3f4f6"/><line x1="224.0" y1="28" x2="224.0" y2="308" stroke="#f3f4f6"/><line x1="304.0" y1="28" x2="304.0" y2="308" stroke="#f3f4f6"/><line x1="384.0" y1="28" x2="384.0" y2="308" stroke="#f3f4f6"/><line x1="464.0" y1="28" x2="464.0" y2="308" stroke="#f3f4f6"/><line x1="544.0" y1="28" x2="544.0" y2="308" stroke="#f3f4f6"/><line x1="624.0" y1="28" x2="624.0" y2="308" stroke="#f3f4f6"/><line x1="696.0" y1="28" x2="696.0" y2="308" stroke="#f3f4f6"/>
  <line x1="64" y1="308" x2="696" y2="308" stroke="#111827"/>
  <line x1="64" y1="28" x2="64" y2="308" stroke="#111827"/>
  <polyline fill="none" stroke="#2563eb" stroke-width="3" points="64.0,47.3 144.0,146.1 224.0,198.4 304.0,228.1 384.0,248.2 464.0,266.3 544.0,274.1 624.0,288.7 696.0,283.1"/>
  <polyline fill="none" stroke="#dc2626" stroke-width="3" points="64.0,49.4 144.0,148.4 224.0,196.2 304.0,230.3 384.0,242.6 464.0,258.4 544.0,264.8 624.0,272.5 696.0,280.6"/>
  <text x="360.0" y="346" text-anchor="middle" font-family="Arial, sans-serif" font-size="13" fill="#374151">Training step</text>
  <text x="18" y="180.0" transform="rotate(-90 18 180.0)" text-anchor="middle" font-family="Arial, sans-serif" font-size="13" fill="#374151">Cross-entropy loss</text>
  <rect x="530" y="38" width="150" height="54" rx="6" fill="#ffffff" stroke="#d1d5db"/>
  <line x1="544" y1="58" x2="584" y2="58" stroke="#2563eb" stroke-width="3"/>
  <text x="594" y="62" font-family="Arial, sans-serif" font-size="13" fill="#111827">train loss</text>
  <line x1="544" y1="78" x2="584" y2="78" stroke="#dc2626" stroke-width="3"/>
  <text x="594" y="82" font-family="Arial, sans-serif" font-size="13" fill="#111827">val loss</text>
</svg>
